# xmcd
#
# Track frame offsets:
# 150
# 1393
# 19710
# 38180
# 54377
# 73032
# 88817
# 104862
# 122785
# 140698
# 156685
# 177488
# 195380
# 214080
# 229452
# 247870
# 265470
#
# Disc length: 3791 seconds
#
#
# Revision: 4
# Processed by: cddbd v1.5.1PL0 Copyright (c) Steve Scherf et al.
# Submitted via: FreeRIP 2.942 
#
DISCID=010ecd11
DTITLE=Marques Houston - MH
DYEAR=2003
DGENRE=R&B
TTITLE0=Intro
TTITLE1=Clubbin' (Feat. Joe Budden and Pied Piper)
TTITLE2=Pop That Booty (Feat. Jermaine "JD" Dupri)
TTITLE3=That Girl
TTITLE4=Because Of You
TTITLE5=Walk Away
TTITLE6=I Can Be The One
TTITLE7=Grass Is Greener
TTITLE8=Cancel
TTITLE9=Good Luck
TTITLE10=Can I Call You
TTITLE11=Love's A Game
TTITLE12=Tempted
TTITLE13=Actin Up (Feat. Lil Fizz Of B2K)
TTITLE14=Alone
TTITLE15=That Girl (Remix) (Feat. Pied Piper) (Bonus Track)
TTITLE16=Clubbin' (Remix) (Feat. Joe Budden) (Bonus Track)
EXTD=
EXTT0=
EXTT1=
EXTT2=
EXTT3=
EXTT4=
EXTT5=
EXTT6=
EXTT7=
EXTT8=
EXTT9=
EXTT10=
EXTT11=
EXTT12=
EXTT13=
EXTT14=
EXTT15=
EXTT16=
PLAYORDER=
